<svg xmlns="http://www.w3.org/2000/svg" viewBox="0 0 100 100"><g transform="translate(577.90907145 898.73672880)"><path d="M-527.9090389-858.6686925c-11.3515765,0-20.5538121,9.2022356-20.5538121,20.5538121,0,11.35153,9.2022356,20.5538121,20.5538121,20.5538121,11.35153,0,20.5538121-9.2022821,20.5538121-20.5538121,0-11.3515765-9.2022821-20.5538121-20.5538121-20.5538121ZM-527.9090456-830.3296261c-4.2997053,0-7.7852942-3.4855889-7.7852942-7.785261,0-4.2997053,3.4855889-7.7852942,7.7852942-7.7852942,4.2996722,0,7.785261,3.4855889,7.785261,7.7852942,0,4.2996722-3.4855889,7.785261-7.785261,7.785261Z" style="fill: #080000;" />
  <rect x="-534.5160883" y="-879.9123893" width="13.2229682" height="10.7424971" style="fill: #080000;" />
    <polygon points="-554.6021867 -874.5411408 -554.4438196 -861.2100861 -501.2159562 -861.2100861 -501.2159562 -874.5411408 -554.6021867 -874.5411408" style="fill: #080000;" />
  </g></svg>
